<svg xmlns="http://www.w3.org/2000/svg" width="512" height="512" fill="none" viewBox="0 0 512 512"><rect width="512" height="512" fill="#1E1E1E"/><defs><radialGradient id="glow" cx="50%" cy="50%" r="50%"><stop offset="0%" style="stop-color:#569cd6;stop-opacity:.15"/><stop offset="100%" style="stop-color:#569cd6;stop-opacity:0"/></radialGradient><linearGradient id="cubeGrad1" x1="0%" x2="100%" y1="0%" y2="100%"><stop offset="0%" style="stop-color:#569cd6"/><stop offset="100%" style="stop-color:#4a8bc2"/></linearGradient><linearGradient id="cubeGrad2" x1="0%" x2="0%" y1="0%" y2="100%"><stop offset="0%" style="stop-color:#4ec9b0"/><stop offset="100%" style="stop-color:#3da592"/></linearGradient><filter id="shadow"><feGaussianBlur in="SourceAlpha" stdDeviation="4"/><feOffset dx="2" dy="2" result="offsetblur"/><feComponentTransfer><feFuncA slope=".3" type="linear"/></feComponentTransfer><feMerge><feMergeNode/><feMergeNode in="SourceGraphic"/></feMerge></filter></defs><circle cx="256" cy="256" r="200" fill="url(#glow)"/><g filter="url(#shadow)"><path fill="none" stroke="url(#cubeGrad1)" stroke-width="6" d="M 180 140 L 332 140 L 332 292 L 180 292 Z" opacity=".4"/><path fill="rgba(86, 156, 214, 0.08)" stroke="url(#cubeGrad1)" stroke-linecap="round" stroke-linejoin="round" stroke-width="8" d="M 140 180 L 292 180 L 292 332 L 140 332 Z"/><line x1="140" x2="180" y1="180" y2="140" stroke="url(#cubeGrad1)" stroke-linecap="round" stroke-width="6" opacity=".6"/><line x1="292" x2="332" y1="180" y2="140" stroke="url(#cubeGrad1)" stroke-linecap="round" stroke-width="6" opacity=".6"/><line x1="292" x2="332" y1="332" y2="292" stroke="url(#cubeGrad1)" stroke-linecap="round" stroke-width="6" opacity=".6"/><line x1="140" x2="180" y1="332" y2="292" stroke="url(#cubeGrad1)" stroke-linecap="round" stroke-width="6" opacity=".6"/><circle cx="216" cy="216" r="14" fill="#CE9178" opacity=".95"><animate attributeName="opacity" dur="2s" repeatCount="indefinite" values="0.95;1;0.95"/></circle><circle cx="256" cy="256" r="14" fill="#4EC9B0" opacity=".95"><animate attributeName="opacity" begin="0.3s" dur="2s" repeatCount="indefinite" values="0.95;1;0.95"/></circle><circle cx="296" cy="296" r="14" fill="#569CD6" opacity=".95"><animate attributeName="opacity" begin="0.6s" dur="2s" repeatCount="indefinite" values="0.95;1;0.95"/></circle><line x1="216" x2="256" y1="216" y2="256" stroke="#4EC9B0" stroke-linecap="round" stroke-width="2" opacity=".5"/><line x1="256" x2="296" y1="256" y2="296" stroke="#569CD6" stroke-linecap="round" stroke-width="2" opacity=".5"/></g><g stroke="#4EC9B0" stroke-linecap="round" stroke-width="3" opacity=".3"><line x1="130" x2="130" y1="170" y2="190"/><line x1="130" x2="150" y1="170" y2="170"/><line x1="302" x2="302" y1="342" y2="322"/><line x1="302" x2="282" y1="342" y2="342"/></g></svg>